<svg xmlns="http://www.w3.org/2000/svg" width="42.721" height="42.721" viewBox="0 0 42.721 42.721">
  <g id="ico-happy" transform="translate(-1150.175 -1100)">
    <g id="Group_4863" data-name="Group 4863" transform="translate(-1091 6351)">
      <g id="_169-confused" data-name="169-confused" transform="translate(2240 -5253)">
        <g id="Group_4855" data-name="Group 4855" transform="translate(12.231 15.152)">
          <path id="Path_11327" data-name="Path 11327" d="M161.975,331.728a1.247,1.247,0,0,1-1.248,1.248H142.672a1.248,1.248,0,1,1,0-2.5h18.054A1.248,1.248,0,0,1,161.975,331.728Z" transform="translate(-140.971 -315.992)" fill="#3e4347"/>
          <circle id="Ellipse_352" data-name="Ellipse 352" cx="3.421" cy="3.421" r="3.421" fill="#3e4347"/>
        </g>
        <circle id="Ellipse_354" data-name="Ellipse 354" cx="3.421" cy="3.421" r="3.421" transform="translate(26.843 15.152)" fill="#3e4347"/>
        <g id="Group_4992" data-name="Group 4992" transform="translate(1.175 2)">
          <g id="Group_680" data-name="Group 680" transform="translate(0 0)">
            <path id="Path_11358" data-name="Path 11358" d="M21.36,0A21.36,21.36,0,1,1,0,21.36,21.36,21.36,0,0,1,21.36,0Z" transform="translate(0 42.721) rotate(-90)" fill="#ccd272"/>
            <circle id="Ellipse_355" data-name="Ellipse 355" cx="3.421" cy="3.421" r="3.421" transform="translate(11.056 14.152)" fill="#3e4347"/>
            <circle id="Ellipse_356" data-name="Ellipse 356" cx="3.421" cy="3.421" r="3.421" transform="translate(25.669 14.152)" fill="#3e4347"/>
          </g>
          <path id="Path_886" data-name="Path 886" d="M477.939,88.792s-2.115,4.9-10.051,4.9-9.961-4.859-9.961-4.859" transform="translate(-446.487 -61.109)" fill="none" stroke="#083140" stroke-linecap="round" stroke-miterlimit="10" stroke-width="2"/>
        </g>
      </g>
    </g>
  </g>
</svg>
